<?xml version="1.0" encoding="UTF-8"?>
<svg xmlns="http://www.w3.org/2000/svg" viewBox="0 0 64 64" width="64" height="64">
  <title>Leave Tracker</title>
  <rect rx="8" ry="8" x="1" y="4" width="62" height="56" fill="#fff" stroke="#e6e7ea" stroke-width="2"/>
  <!-- header -->
  <rect x="6" y="8" width="52" height="10" rx="2" ry="2" fill="#0366d6" />
  <!-- rings -->
  <rect x="12" y="6" width="6" height="4" rx="1" fill="#fff" />
  <rect x="46" y="6" width="6" height="4" rx="1" fill="#fff" />
  <!-- grid dots -->
  <g fill="#dbeafe">
    <rect x="10" y="22" width="8" height="6" rx="1"/>
    <rect x="22" y="22" width="8" height="6" rx="1"/>
    <rect x="34" y="22" width="8" height="6" rx="1"/>
    <rect x="46" y="22" width="8" height="6" rx="1"/>
  </g>
  <!-- check/leaf mark -->
  <path d="M20 40c4-6 12-10 20-6" fill="none" stroke="#16a34a" stroke-width="3" stroke-linecap="round" stroke-linejoin="round"/>
  <path d="M28 36c1 1 3 3 6 1" fill="none" stroke="#16a34a" stroke-width="3" stroke-linecap="round"/>
</svg>
